{"accessors":[{"bufferView":0,"componentType":5126,"count":6,"name":"mixamorig:Hips/translation/Output","type":"VEC3"},{"bufferView":1,"componentType":5126,"count":6,"max":[0.1666666716337204],"min":[0],"name":"mixamorig:Hips/translation/Input","type":"SCALAR"},{"bufferView":2,"componentType":5126,"count":6,"name":"mixamorig:Hips/rotation/Output","type":"VEC4"},{"bufferView":3,"componentType":5126,"count":6,"max":[0.1666666716337204],"min":[0],"name":"mixamorig:Hips/rotation/Input","type":"SCALAR"},{"bufferView":4,"componentType":5126,"count":6,"name":"mixamorig:Spine/rotation/Output","type":"VEC4"},{"bufferView":5,"componentType":5126,"count":6,"max":[0.1666666716337204],"min":[0],"name":"mixamorig:Spine/rotation/Input","type":"SCALAR"},{"bufferView":6,"componentType":5126,"count":6,"name":"mixamorig:Spine1/rotation/Output","type":"VEC4"},{"bufferView":7,"componentType":5126,"count":6,"max":[0.1666666716337204],"min":[0],"name":"mixamorig:Spine1/rotation/Input","type":"SCALAR"},{"bufferView":8,"componentType":5126,"count":6,"name":"mixamorig:Spine2/rotation/Output","type":"VEC4"},{"bufferView":9,"componentType":5126,"count":6,"max":[0.1666666716337204],"min":[0],"name":"mixamorig:Spine2/rotation/Input","type":"SCALAR"},{"bufferView":10,"componentType":5126,"count":6,"name":"mixamorig:Neck/rotation/Output","type":"VEC4"},{"bufferView":11,"componentType":5126,"count":6,"max":[0.1666666716337204],"min":[0],"name":"mixamorig:Neck/rotation/Input","type":"SCALAR"},{"bufferView":12,"componentType":5126,"count":6,"name":"mixamorig:Head/rotation/Output","type":"VEC4"},{"bufferView":13,"componentType":5126,"count":6,"max":[0.1666666716337204],"min":[0],"name":"mixamorig:Head/rotation/Input","type":"SCALAR"},{"bufferView":14,"componentType":5126,"count":6,"name":"mixamorig:LeftShoulder/rotation/Output","type":"VEC4"},{"bufferView":15,"componentType":5126,"count":6,"max":[0.1666666716337204],"min":[0],"name":"mixamorig:LeftShoulder/rotation/Input","type":"SCALAR"},{"bufferView":16,"componentType":5126,"count":6,"name":"mixamorig:LeftArm/rotation/Output","type":"VEC4"},{"bufferView":17,"componentType":5126,"count":6,"max":[0.1666666716337204],"min":[0],"name":"mixamorig:LeftArm/rotation/Input","type":"SCALAR"},{"bufferView":18,"componentType":5126,"count":6,"name":"mixamorig:LeftForeArm/rotation/Output","type":"VEC4"},{"bufferView":19,"componentType":5126,"count":6,"max":[0.1666666716337204],"min":[0],"name":"mixamorig:LeftForeArm/rotation/Input","type":"SCALAR"},{"bufferView":20,"componentType":5126,"count":6,"name":"mixamorig:LeftHand/rotation/Output","type":"VEC4"},{"bufferView":21,"componentType":5126,"count":6,"max":[0.1666666716337204],"min":[0],"name":"mixamorig:LeftHand/rotation/Input","type":"SCALAR"},{"bufferView":22,"componentType":5126,"count":1,"name":"mixamorig:LeftHandThumb1/rotation/Output","type":"VEC4"},{"bufferView":23,"componentType":5126,"count":1,"max":[0.1666666716337204],"min":[0.1666666716337204],"name":"mixamorig:LeftHandThumb1/rotation/Input","type":"SCALAR"},{"bufferView":24,"componentType":5126,"count":1,"name":"mixamorig:LeftHandThumb2/rotation/Output","type":"VEC4"},{"bufferView":25,"componentType":5126,"count":1,"max":[0.1666666716337204],"min":[0.1666666716337204],"name":"mixamorig:LeftHandThumb2/rotation/Input","type":"SCALAR"},{"bufferView":26,"componentType":5126,"count":1,"name":"mixamorig:LeftHandThumb3/rotation/Output","type":"VEC4"},{"bufferView":27,"componentType":5126,"count":1,"max":[0.1666666716337204],"min":[0.1666666716337204],"name":"mixamorig:LeftHandThumb3/rotation/Input","type":"SCALAR"},{"bufferView":28,"componentType":5126,"count":1,"name":"mixamorig:LeftHandIndex1/rotation/Output","type":"VEC4"},{"bufferView":29,"componentType":5126,"count":1,"max":[0.1666666716337204],"min":[0.1666666716337204],"name":"mixamorig:LeftHandIndex1/rotation/Input","type":"SCALAR"},{"bufferView":30,"componentType":5126,"count":1,"name":"mixamorig:LeftHandIndex2/rotation/Output","type":"VEC4"},{"bufferView":31,"componentType":5126,"count":1,"max":[0.1666666716337204],"min":[0.1666666716337204],"name":"mixamorig:LeftHandIndex2/rotation/Input","type":"SCALAR"},{"bufferView":32,"componentType":5126,"count":1,"name":"mixamorig:LeftHandIndex3/rotation/Output","type":"VEC4"},{"bufferView":33,"componentType":5126,"count":1,"max":[0.1666666716337204],"min":[0.1666666716337204],"name":"mixamorig:LeftHandIndex3/rotation/Input","type":"SCALAR"},{"bufferView":34,"componentType":5126,"count":6,"name":"mixamorig:RightShoulder/rotation/Output","type":"VEC4"},{"bufferView":35,"componentType":5126,"count":6,"max":[0.1666666716337204],"min":[0],"name":"mixamorig:RightShoulder/rotation/Input","type":"SCALAR"},{"bufferView":36,"componentType":5126,"count":6,"name":"mixamorig:RightArm/rotation/Output","type":"VEC4"},{"bufferView":37,"componentType":5126,"count":6,"max":[0.1666666716337204],"min":[0],"name":"mixamorig:RightArm/rotation/Input","type":"SCALAR"},{"bufferView":38,"componentType":5126,"count":6,"name":"mixamorig:RightForeArm/rotation/Output","type":"VEC4"},{"bufferView":39,"componentType":5126,"count":6,"max":[0.1666666716337204],"min":[0],"name":"mixamorig:RightForeArm/rotation/Input","type":"SCALAR"},{"bufferView":40,"componentType":5126,"count":6,"name":"mixamorig:RightHand/rotation/Output","type":"VEC4"},{"bufferView":41,"componentType":5126,"count":6,"max":[0.1666666716337204],"min":[0],"name":"mixamorig:RightHand/rotation/Input","type":"SCALAR"},{"bufferView":42,"componentType":5126,"count":6,"name":"mixamorig:RightHandThumb1/rotation/Output","type":"VEC4"},{"bufferView":43,"componentType":5126,"count":6,"max":[0.1666666716337204],"min":[0],"name":"mixamorig:RightHandThumb1/rotation/Input","type":"SCALAR"},{"bufferView":44,"componentType":5126,"count":6,"name":"mixamorig:RightHandThumb2/rotation/Output","type":"VEC4"},{"bufferView":45,"componentType":5126,"count":6,"max":[0.1666666716337204],"min":[0],"name":"mixamorig:RightHandThumb2/rotation/Input","type":"SCALAR"},{"bufferView":46,"componentType":5126,"count":6,"name":"mixamorig:RightHandThumb3/rotation/Output","type":"VEC4"},{"bufferView":47,"componentType":5126,"count":6,"max":[0.1666666716337204],"min":[0],"name":"mixamorig:RightHandThumb3/rotation/Input","type":"SCALAR"},{"bufferView":48,"componentType":5126,"count":6,"name":"mixamorig:RightHandIndex1/rotation/Output","type":"VEC4"},{"bufferView":49,"componentType":5126,"count":6,"max":[0.1666666716337204],"min":[0],"name":"mixamorig:RightHandIndex1/rotation/Input","type":"SCALAR"},{"bufferView":50,"componentType":5126,"count":6,"name":"mixamorig:RightHandIndex2/rotation/Output","type":"VEC4"},{"bufferView":51,"componentType":5126,"count":6,"max":[0.1666666716337204],"min":[0],"name":"mixamorig:RightHandIndex2/rotation/Input","type":"SCALAR"},{"bufferView":52,"componentType":5126,"count":6,"name":"mixamorig:RightHandIndex3/rotation/Output","type":"VEC4"},{"bufferView":53,"componentType":5126,"count":6,"max":[0.1666666716337204],"min":[0],"name":"mixamorig:RightHandIndex3/rotation/Input","type":"SCALAR"},{"bufferView":54,"componentType":5126,"count":6,"name":"mixamorig:LeftUpLeg/rotation/Output","type":"VEC4"},{"bufferView":55,"componentType":5126,"count":6,"max":[0.1666666716337204],"min":[0],"name":"mixamorig:LeftUpLeg/rotation/Input","type":"SCALAR"},{"bufferView":56,"componentType":5126,"count":6,"name":"mixamorig:LeftLeg/rotation/Output","type":"VEC4"},{"bufferView":57,"componentType":5126,"count":6,"max":[0.1666666716337204],"min":[0],"name":"mixamorig:LeftLeg/rotation/Input","type":"SCALAR"},{"bufferView":58,"componentType":5126,"count":6,"name":"mixamorig:LeftFoot/rotation/Output","type":"VEC4"},{"bufferView":59,"componentType":5126,"count":6,"max":[0.1666666716337204],"min":[0],"name":"mixamorig:LeftFoot/rotation/Input","type":"SCALAR"},{"bufferView":60,"componentType":5126,"count":1,"name":"mixamorig:LeftToeBase/rotation/Output","type":"VEC4"},{"bufferView":61,"componentType":5126,"count":1,"max":[0.1666666716337204],"min":[0.1666666716337204],"name":"mixamorig:LeftToeBase/rotation/Input","type":"SCALAR"},{"bufferView":62,"componentType":5126,"count":6,"name":"mixamorig:RightUpLeg/rotation/Output","type":"VEC4"},{"bufferView":63,"componentType":5126,"count":6,"max":[0.1666666716337204],"min":[0],"name":"mixamorig:RightUpLeg/rotation/Input","type":"SCALAR"},{"bufferView":64,"componentType":5126,"count":6,"name":"mixamorig:RightLeg/rotation/Output","type":"VEC4"},{"bufferView":65,"componentType":5126,"count":6,"max":[0.1666666716337204],"min":[0],"name":"mixamorig:RightLeg/rotation/Input","type":"SCALAR"},{"bufferView":66,"componentType":5126,"count":6,"name":"mixamorig:RightFoot/rotation/Output","type":"VEC4"},{"bufferView":67,"componentType":5126,"count":6,"max":[0.1666666716337204],"min":[0],"name":"mixamorig:RightFoot/rotation/Input","type":"SCALAR"},{"bufferView":68,"componentType":5126,"count":6,"name":"mixamorig:RightToeBase/rotation/Output","type":"VEC4"},{"bufferView":69,"componentType":5126,"count":6,"max":[0.1666666716337204],"min":[0],"name":"mixamorig:RightToeBase/rotation/Input","type":"SCALAR"}],"animations":[{"channels":[{"sampler":0,"target":{"node":0,"path":"translation"}},{"sampler":1,"target":{"node":0,"path":"rotation"}},{"sampler":2,"target":{"node":1,"path":"rotation"}},{"sampler":3,"target":{"node":2,"path":"rotation"}},{"sampler":4,"target":{"node":3,"path":"rotation"}},{"sampler":5,"target":{"node":4,"path":"rotation"}},{"sampler":6,"target":{"node":5,"path":"rotation"}},{"sampler":7,"target":{"node":7,"path":"rotation"}},{"sampler":8,"target":{"node":8,"path":"rotation"}},{"sampler":9,"target":{"node":9,"path":"rotation"}},{"sampler":10,"target":{"node":10,"path":"rotation"}},{"sampler":11,"target":{"node":11,"path":"rotation"}},{"sampler":12,"target":{"node":12,"path":"rotation"}},{"sampler":13,"target":{"node":13,"path":"rotation"}},{"sampler":14,"target":{"node":15,"path":"rotation"}},{"sampler":15,"target":{"node":16,"path":"rotation"}},{"sampler":16,"target":{"node":17,"path":"rotation"}},{"sampler":17,"target":{"node":19,"path":"rotation"}},{"sampler":18,"target":{"node":20,"path":"rotation"}},{"sampler":19,"target":{"node":21,"path":"rotation"}},{"sampler":20,"target":{"node":22,"path":"rotation"}},{"sampler":21,"target":{"node":23,"path":"rotation"}},{"sampler":22,"target":{"node":24,"path":"rotation"}},{"sampler":23,"target":{"node":25,"path":"rotation"}},{"sampler":24,"target":{"node":27,"path":"rotation"}},{"sampler":25,"target":{"node":28,"path":"rotation"}},{"sampler":26,"target":{"node":29,"path":"rotation"}},{"sampler":27,"target":{"node":31,"path":"rotation"}},{"sampler":28,"target":{"node":32,"path":"rotation"}},{"sampler":29,"target":{"node":33,"path":"rotation"}},{"sampler":30,"target":{"node":34,"path":"rotation"}},{"sampler":31,"target":{"node":36,"path":"rotation"}},{"sampler":32,"target":{"node":37,"path":"rotation"}},{"sampler":33,"target":{"node":38,"path":"rotation"}},{"sampler":34,"target":{"node":39,"path":"rotation"}}],"name":"mixamo.com","samplers":[{"input":1,"output":0},{"input":3,"output":2},{"input":5,"output":4},{"input":7,"output":6},{"input":9,"output":8},{"input":11,"output":10},{"input":13,"output":12},{"input":15,"output":14},{"input":17,"output":16},{"input":19,"output":18},{"input":21,"output":20},{"input":23,"output":22},{"input":25,"output":24},{"input":27,"output":26},{"input":29,"output":28},{"input":31,"output":30},{"input":33,"output":32},{"input":35,"output":34},{"input":37,"output":36},{"input":39,"output":38},{"input":41,"output":40},{"input":43,"output":42},{"input":45,"output":44},{"input":47,"output":46},{"input":49,"output":48},{"input":51,"output":50},{"input":53,"output":52},{"input":55,"output":54},{"input":57,"output":56},{"input":59,"output":58},{"input":61,"output":60},{"input":63,"output":62},{"input":65,"output":64},{"input":67,"output":66},{"input":69,"output":68}]}],"asset":{"copyright":"Copyright (c) 2018-2020 Chukong Technologies Inc.","generator":"FBX-glTF-conv","version":"2.0"},"bufferViews":[{"buffer":0,"byteLength":72},{"buffer":0,"byteLength":24,"byteOffset":72},{"buffer":0,"byteLength":96,"byteOffset":96},{"buffer":0,"byteLength":24,"byteOffset":192},{"buffer":0,"byteLength":96,"byteOffset":216},{"buffer":0,"byteLength":24,"byteOffset":312},{"buffer":0,"byteLength":96,"byteOffset":336},{"buffer":0,"byteLength":24,"byteOffset":432},{"buffer":0,"byteLength":96,"byteOffset":456},{"buffer":0,"byteLength":24,"byteOffset":552},{"buffer":0,"byteLength":96,"byteOffset":576},{"buffer":0,"byteLength":24,"byteOffset":672},{"buffer":0,"byteLength":96,"byteOffset":696},{"buffer":0,"byteLength":24,"byteOffset":792},{"buffer":0,"byteLength":96,"byteOffset":816},{"buffer":0,"byteLength":24,"byteOffset":912},{"buffer":0,"byteLength":96,"byteOffset":936},{"buffer":0,"byteLength":24,"byteOffset":1032},{"buffer":0,"byteLength":96,"byteOffset":1056},{"buffer":0,"byteLength":24,"byteOffset":1152},{"buffer":0,"byteLength":96,"byteOffset":1176},{"buffer":0,"byteLength":24,"byteOffset":1272},{"buffer":0,"byteLength":16,"byteOffset":1296},{"buffer":0,"byteLength":4,"byteOffset":1312},{"buffer":0,"byteLength":16,"byteOffset":1316},{"buffer":0,"byteLength":4,"byteOffset":1332},{"buffer":0,"byteLength":16,"byteOffset":1336},{"buffer":0,"byteLength":4,"byteOffset":1352},{"buffer":0,"byteLength":16,"byteOffset":1356},{"buffer":0,"byteLength":4,"byteOffset":1372},{"buffer":0,"byteLength":16,"byteOffset":1376},{"buffer":0,"byteLength":4,"byteOffset":1392},{"buffer":0,"byteLength":16,"byteOffset":1396},{"buffer":0,"byteLength":4,"byteOffset":1412},{"buffer":0,"byteLength":96,"byteOffset":1416},{"buffer":0,"byteLength":24,"byteOffset":1512},{"buffer":0,"byteLength":96,"byteOffset":1536},{"buffer":0,"byteLength":24,"byteOffset":1632},{"buffer":0,"byteLength":96,"byteOffset":1656},{"buffer":0,"byteLength":24,"byteOffset":1752},{"buffer":0,"byteLength":96,"byteOffset":1776},{"buffer":0,"byteLength":24,"byteOffset":1872},{"buffer":0,"byteLength":96,"byteOffset":1896},{"buffer":0,"byteLength":24,"byteOffset":1992},{"buffer":0,"byteLength":96,"byteOffset":2016},{"buffer":0,"byteLength":24,"byteOffset":2112},{"buffer":0,"byteLength":96,"byteOffset":2136},{"buffer":0,"byteLength":24,"byteOffset":2232},{"buffer":0,"byteLength":96,"byteOffset":2256},{"buffer":0,"byteLength":24,"byteOffset":2352},{"buffer":0,"byteLength":96,"byteOffset":2376},{"buffer":0,"byteLength":24,"byteOffset":2472},{"buffer":0,"byteLength":96,"byteOffset":2496},{"buffer":0,"byteLength":24,"byteOffset":2592},{"buffer":0,"byteLength":96,"byteOffset":2616},{"buffer":0,"byteLength":24,"byteOffset":2712},{"buffer":0,"byteLength":96,"byteOffset":2736},{"buffer":0,"byteLength":24,"byteOffset":2832},{"buffer":0,"byteLength":96,"byteOffset":2856},{"buffer":0,"byteLength":24,"byteOffset":2952},{"buffer":0,"byteLength":16,"byteOffset":2976},{"buffer":0,"byteLength":4,"byteOffset":2992},{"buffer":0,"byteLength":96,"byteOffset":2996},{"buffer":0,"byteLength":24,"byteOffset":3092},{"buffer":0,"byteLength":96,"byteOffset":3116},{"buffer":0,"byteLength":24,"byteOffset":3212},{"buffer":0,"byteLength":96,"byteOffset":3236},{"buffer":0,"byteLength":24,"byteOffset":3332},{"buffer":0,"byteLength":96,"byteOffset":3356},{"buffer":0,"byteLength":24,"byteOffset":3452}],"buffers":[{"byteLength":3476,"uri":"out.bin"}],"nodes":[{"children":[1,31,36],"name":"mixamorig:Hips","translation":[0,-0.1326509565114975,0]},{"children":[2],"name":"mixamorig:Spine","rotation":[-0.04910602420568466,0,0,0.9987935423851013],"translation":[0,0.08801700174808502,-0.008675999939441681]},{"children":[3],"name":"mixamorig:Spine1","translation":[0,0.10318399965763092,0]},{"children":[4,7,19],"name":"mixamorig:Spine2","translation":[0,0.11792399734258652,0]},{"children":[5],"name":"mixamorig:Neck","rotation":[0.04910602420568466,0,0,0.9987935423851013],"translation":[0,0.1326649934053421,8.881783998477905e-18]},{"children":[6],"name":"mixamorig:Head","translation":[0,0.06957399845123291,0.011215999722480774]},{"name":"mixamorig:HeadTop_End","translation":[0,0.46037399768829346,0.07421600073575974]},{"children":[8],"name":"mixamorig:LeftShoulder","rotation":[-0.552704930305481,-0.4359274208545685,0.5709518194198608,-0.4224909245967865],"translation":[0.08974800258874893,0.10719700157642365,-0.002968000015243888]},{"children":[9],"name":"mixamorig:LeftArm","rotation":[-0.1326102316379547,0.0018448395421728492,0.015916669741272926,0.9910387396812439],"translation":[4.440891999238953e-18,0.188960999250412,-3.552713599391162e-17]},{"children":[10],"name":"mixamorig:LeftForeArm","rotation":[6.939520906811544e-18,0.00017193527310155332,-1.1115007043429182e-17,1],"translation":[-4.440891999238953e-18,0.2382040023803711,0]},{"children":[11,15],"name":"mixamorig:LeftHand","rotation":[-0.003090212121605873,0.24132950603961945,0.0007684770971536636,0.9704380035400391],"translation":[-4.440891999238953e-18,0.2352290004491806,-3.552713599391162e-17]},{"children":[12],"name":"mixamorig:LeftHandThumb1","rotation":[0.12179655581712723,0.03206954151391983,0.3191130757331848,0.9393103718757629],"translation":[-0.03836800158023834,0.06616999953985214,0]},{"children":[13],"name":"mixamorig:LeftHandThumb2","rotation":[0.0027846877928823233,-0.02114221639931202,-0.14099548757076263,0.9897805452346802],"translation":[0.000645000021904707,0.061188001185655594,-7.105427198782324e-17]},{"children":[14],"name":"mixamorig:LeftHandThumb3","rotation":[-0.0002607512869872153,-0.0036870716139674187,0.3363685607910156,0.9417231678962708],"translation":[-0.011079000309109688,0.03965200111269951,7.105427198782324e-17]},{"name":"mixamorig:LeftHandThumb4","translation":[0.010433999821543694,0.023768000304698944,-7.105427198782324e-17]},{"children":[16],"name":"mixamorig:LeftHandIndex1","rotation":[0.003185857553035021,-0.000883636181242764,-0.001725639565847814,0.9999930262565613],"translation":[-1.776356799695581e-17,0.13377800583839417,0.0008520000264979899]},{"children":[17],"name":"mixamorig:LeftHandIndex2","rotation":[-0.000016370835510315374,-0.0009413933730684221,0.020832372829318047,0.9997825622558594],"translation":[-0.0001720000000204891,0.049917999655008316,0]},{"children":[18],"name":"mixamorig:LeftHandIndex3","rotation":[3.5683388688312334e-8,-0.00005467533992487006,-0.038864992558956146,0.9992444515228271],"translation":[0.0014390000142157078,0.037629999220371246,3.552713599391162e-17]},{"name":"mixamorig:LeftHandIndex4","translation":[-0.0012669999850913882,0.032037001103162766,3.552713599391162e-17]},{"children":[20],"name":"mixamorig:RightShoulder","rotation":[0.5557882189750671,-0.43357545137405396,0.5683677196502686,0.4243465065956116],"translation":[-0.08974800258874893,0.10710799694061279,-0.0020620001014322042]},{"children":[21],"name":"mixamorig:RightArm","rotation":[-0.13314640522003174,-0.0043953657150268555,-0.010538814589381218,0.9910305738449097],"translation":[4.440891999238953e-18,0.188960999250412,-3.552713599391162e-17]},{"children":[22],"name":"mixamorig:RightForeArm","rotation":[-5.5490379071715395e-17,-0.0004027813265565783,4.2541455534793885e-17,0.9999999403953552],"translation":[0,0.2383359968662262,0]},{"children":[23,27],"name":"mixamorig:RightHand","rotation":[-0.0010111560113728046,-0.258762925863266,-0.00027087563648819923,0.9659402966499329],"translation":[0,0.23531299829483032,0]},{"children":[24],"name":"mixamorig:RightHandThumb1","rotation":[0.10452277958393097,-0.037685513496398926,-0.27948346734046936,0.953700065612793],"translation":[0.04248899966478348,0.06093500182032585,0]},{"children":[25],"name":"mixamorig:RightHandThumb2","rotation":[0.0006992414128035307,0.008926326408982277,-0.005012034438550472,0.9999473690986633],"translation":[0.004937999881803989,0.0592229999601841,-3.552713599391162e-17]},{"children":[26],"name":"mixamorig:RightHandThumb3","rotation":[-0.0019705675076693296,0.014914803206920624,-0.20307771861553192,0.9790470600128174],"translation":[0.002893999917432666,0.03948500007390976,-7.105427198782324e-17]},{"name":"mixamorig:RightHandThumb4","translation":[-0.007832000032067299,0.022433999925851822,-7.105427198782324e-17]},{"children":[28],"name":"mixamorig:RightHandIndex1","rotation":[0.0010297627886757255,0.0005718150641769171,-0.030657297000288963,0.999529242515564],"translation":[0,0.11176799982786179,0.00023400000645779073]},{"children":[29],"name":"mixamorig:RightHandIndex2","rotation":[0.000010156846656173002,-0.0011015411000698805,0.05208145081996918,0.9986422061920166],"translation":[-0.003776000114157796,0.06149600073695183,0]},{"children":[30],"name":"mixamorig:RightHandIndex3","rotation":[0.00005360374416341074,0.0010691427160054445,0.0072103762067854404,0.9999734163284302],"translation":[0.0018649999983608723,0.04346200078725815,-3.552713599391162e-17]},{"name":"mixamorig:RightHandIndex4","translation":[0.0019109999993816018,0.03331099823117256,3.552713599391162e-17]},{"children":[32],"name":"mixamorig:LeftUpLeg","rotation":[0.00007098088826751336,-0.0007699157577008009,0.9957768321037292,-0.09180370718240738],"translation":[0.16891799867153168,-0.04889800027012825,0.00025099999038502574]},{"children":[33],"name":"mixamorig:LeftLeg","rotation":[-0.003624423872679472,0.0007134752231650054,-0.1931440234184265,0.9811634421348572],"translation":[1.776356799695581e-17,0.28191500902175903,1.3877787497621727e-19]},{"children":[34],"name":"mixamorig:LeftFoot","rotation":[0.5150975584983826,-0.0969216600060463,-0.04805972799658775,0.8502770066261292],"translation":[0,0.25336501002311707,-5.551114999048691e-19]},{"children":[35],"name":"mixamorig:LeftToeBase","rotation":[0.24160926043987274,0.43040478229522705,-0.12073900550603867,0.8612774014472961],"translation":[0,0.17864499986171722,0]},{"name":"mixamorig:LeftToe_End","translation":[-1.776356799695581e-17,0.13177800178527832,0]},{"children":[37],"name":"mixamorig:RightUpLeg","rotation":[-0.00026742013869807124,-0.0029006493277847767,0.9957728981971741,0.09180349111557007],"translation":[-0.16891799867153168,-0.04889800027012825,-0.0033680000342428684]},{"children":[38],"name":"mixamorig:RightLeg","rotation":[0.01132336724549532,0.0022293254733085632,0.19315731525421143,0.9810999035835266],"translation":[-5.329070399086743e-17,0.2819199860095978,2.7755574995243454e-19]},{"children":[39],"name":"mixamorig:RightFoot","rotation":[0.49638789892196655,0.10005799680948257,0.04763179272413254,0.8609986305236816],"translation":[0,0.2533949911594391,2.2204459996194763e-18]},{"children":[40],"name":"mixamorig:RightToeBase","rotation":[0.24721816182136536,-0.41741904616355896,0.11912158131599426,0.8662878274917603],"translation":[-7.105427198782324e-17,0.17322899401187897,7.105427198782324e-17]},{"name":"mixamorig:RightToe_End","translation":[3.552713599391162e-17,0.13583000004291534,0]}],"scenes":[{"nodes":[0]}]}